<svg id="Twitter" xmlns="http://www.w3.org/2000/svg" viewBox="0 0 96.82 96.82"><defs><style>.cls-1{fill:none;stroke:#131313;stroke-miterlimit:10;stroke-width:2px;}.cls-2{fill:#131313;}.cls-3,.cls-4{fill:#f3f0ec;}.cls-3{opacity:0.55;}.cls-5{fill:#f0ebe3;}</style></defs><title>icon-twitter</title><circle class="cls-1" cx="48.41" cy="48.41" r="47.41"/><circle class="cls-2" cx="48.41" cy="48.41" r="40.68"/><path class="cls-3" d="M261.75,269.06c-.94.62.55,1.72,0,0Z" transform="translate(-197.72 -247.21)"/><path class="cls-3" d="M268.28,266.93c-2.55.22,0,1.33,0,0Z" transform="translate(-197.72 -247.21)"/><path class="cls-3" d="M251,307.15c0-.38-2.06-.12,0,0Z" transform="translate(-197.72 -247.21)"/><path class="cls-3" d="M237.18,316.41c.84.27.95-.85,1.51-.18C239.46,315.57,237.1,315.93,237.18,316.41Z" transform="translate(-197.72 -247.21)"/><path class="cls-4" d="M286.33,302.7c-3.18-.84-.53,2.63,0,0Z" transform="translate(-197.72 -247.21)"/><path class="cls-4" d="M267,318.72c-2.49-.61-1.9,0,0,0Z" transform="translate(-197.72 -247.21)"/><path class="cls-3" d="M231.42,278.5c-2.16,0,.24,2.12,0,0Z" transform="translate(-197.72 -247.21)"/><path class="cls-3" d="M262.51,324.06c1.08-4-4.7,3.06,0,0Z" transform="translate(-197.72 -247.21)"/><path class="cls-3" d="M208.61,301c3.49,0,.2-2,0,0Z" transform="translate(-197.72 -247.21)"/><path class="cls-4" d="M221.64,288.11c.29,0,.17-2.85,0,0Z" transform="translate(-197.72 -247.21)"/><path class="cls-3" d="M268.28,327.44c1.6,1.33-.66-5.59,0,0Z" transform="translate(-197.72 -247.21)"/><path class="cls-3" d="M217.12,320.68c.06.31-.25.89.51.71C218.18,321.32,218,320.35,217.12,320.68Z" transform="translate(-197.72 -247.21)"/><path class="cls-3" d="M212.1,309.47c-.55.13-1.35.1-1.5.53C211.36,310,212.25,310.1,212.1,309.47Z" transform="translate(-197.72 -247.21)"/><path class="cls-3" d="M239.19,308.22c1.19-.51,0-1.55,0,0Z" transform="translate(-197.72 -247.21)"/><path class="cls-3" d="M234.43,290.06c-1.79.11.31,1.11,0,0Z" transform="translate(-197.72 -247.21)"/><path class="cls-3" d="M242,268.17c.65-.42,1.36-.81,1.5-1.6A2.16,2.16,0,0,0,242,268.17Z" transform="translate(-197.72 -247.21)"/><path class="cls-3" d="M213.12,310.83c-.82.72,2.73.48,0,0Z" transform="translate(-197.72 -247.21)"/><path class="cls-3" d="M277.9,308c5.14,0,1-1.9,0,0Z" transform="translate(-197.72 -247.21)"/><path class="cls-3" d="M216.87,306.88c-4.17-.31.46,2,0,0Z" transform="translate(-197.72 -247.21)"/><path class="cls-3" d="M276.05,282.26c-.85-2.35-1.15.07,0,0Z" transform="translate(-197.72 -247.21)"/><path class="cls-3" d="M272,274.55c-.93.11.18,3.54,0,0Z" transform="translate(-197.72 -247.21)"/><path class="cls-4" d="M256,270.41c.12.37,3.22-.41,0,0Z" transform="translate(-197.72 -247.21)"/><path class="cls-4" d="M243.13,326.48c.41-.19.52-.63-.36-.66C242.36,326,242.25,326.44,243.13,326.48Z" transform="translate(-197.72 -247.21)"/><path class="cls-3" d="M226.92,297.86c0-.52-.51,0,0,0Z" transform="translate(-197.72 -247.21)"/><path class="cls-3" d="M264,293.35c-.75,1.67,2,.33,0,0Z" transform="translate(-197.72 -247.21)"/><path class="cls-3" d="M260.5,290.53c-2.95-.63,0,3.24,0,0Z" transform="translate(-197.72 -247.21)"/><path class="cls-4" d="M255.73,290.72c0,2.06,2.14-.33,0,0Z" transform="translate(-197.72 -247.21)"/><path class="cls-3" d="M278.05,279.06c-2,.11,3.78,0,0,0Z" transform="translate(-197.72 -247.21)"/><path class="cls-3" d="M211.1,277.18c-2.2,0,.4,1.72,0,0Z" transform="translate(-197.72 -247.21)"/><path class="cls-3" d="M236.12,297.23c0-.49-4.07,0,0,0Z" transform="translate(-197.72 -247.21)"/><path class="cls-4" d="M214.72,290.72c1.19-.09,0-2.1,0,0Z" transform="translate(-197.72 -247.21)"/><path class="cls-3" d="M217.21,272.71c.1-.75-.52-.83,0,0Z" transform="translate(-197.72 -247.21)"/><path class="cls-3" d="M217.57,283.47c1.12,0,.36-2.83,0,0Z" transform="translate(-197.72 -247.21)"/><path class="cls-3" d="M227.2,321.75c0-.13-.21-1.47,0,0Z" transform="translate(-197.72 -247.21)"/><path class="cls-4" d="M273.4,284.72c.61-2.48,0-1.9,0,0Z" transform="translate(-197.72 -247.21)"/><path class="cls-3" d="M245.22,276.71c1.51,0-.2-2.4,0,0Z" transform="translate(-197.72 -247.21)"/><path class="cls-3" d="M249.68,312.25c-.61-2.39-1.81,0,0,0Z" transform="translate(-197.72 -247.21)"/><path class="cls-3" d="M252.71,270.46c3.41-.74-3.56-.61,0,0Z" transform="translate(-197.72 -247.21)"/><path class="cls-3" d="M257.34,315c-.47-.08-.58.34-.53,1C257.28,316.07,257.39,315.65,257.34,315Z" transform="translate(-197.72 -247.21)"/><path class="cls-3" d="M212.22,306.49c-1.52,0,0,1.51,0,0Z" transform="translate(-197.72 -247.21)"/><path class="cls-3" d="M236.48,308.24c-1.33,0,1.65,0,0,0Z" transform="translate(-197.72 -247.21)"/><path class="cls-3" d="M245.39,315.75c3.68.71,0-3.59,0,0Z" transform="translate(-197.72 -247.21)"/><path class="cls-3" d="M252.71,294.73c.74,5.28,2.11.42,0,0Z" transform="translate(-197.72 -247.21)"/><path class="cls-3" d="M253.24,325.25c-.2-.06-.05,0,0,0Z" transform="translate(-197.72 -247.21)"/><path class="cls-4" d="M259.84,274.71c.51,2.41-.54-2.74,0,0Z" transform="translate(-197.72 -247.21)"/><path class="cls-3" d="M235,321.75c0,.64.63.5,1.13.5C236.07,321.77,234.77,320.94,235,321.75Z" transform="translate(-197.72 -247.21)"/><path class="cls-3" d="M238.17,321.75c.62-3-1.07-.69,0,0Z" transform="translate(-197.72 -247.21)"/><path class="cls-3" d="M247.4,296.48c0,5.82,3-.55,0,0Z" transform="translate(-197.72 -247.21)"/><path class="cls-3" d="M259.08,312.49Z" transform="translate(-197.72 -247.21)"/><path class="cls-4" d="M264.16,322.5c.81.18-.13-1.7,0,0Z" transform="translate(-197.72 -247.21)"/><path class="cls-3" d="M279.42,309c-.68-.16-.74.52-.75,1.25A1.08,1.08,0,0,0,279.42,309Z" transform="translate(-197.72 -247.21)"/><path class="cls-3" d="M284.13,293c0,2.86,1.9.56,0,0Z" transform="translate(-197.72 -247.21)"/><path class="cls-3" d="M222.16,270c.13-.19.47-1.23-.19-1C221.84,269.14,221.5,270.18,222.16,270Z" transform="translate(-197.72 -247.21)"/><g id="_020201ff" data-name="#020201ff"><path class="cls-5" d="M252.83,278.88a8.23,8.23,0,0,1,3.94-1.72c-.2.87-1,1.32-1.74,1.72a15.56,15.56,0,0,1,3.28-.87c.3,0,.73,0,.84.35s-.28.79-.62,1c-1.24.64-2.68.74-3.95,1.33a9.88,9.88,0,0,1,7.17,2.43,13.21,13.21,0,0,1,4.48,7.73,9.86,9.86,0,0,0,6.28-.68c-1,2.22-3.48,3.24-5.76,3.44a13.08,13.08,0,0,0,6,.62,8.27,8.27,0,0,1-6.36,2.4,20.7,20.7,0,0,1-6.22,10.17A29.5,29.5,0,0,1,238.65,314a25.71,25.71,0,0,1-19.13-10.19c.38.22.71.53,1.07.78A14.22,14.22,0,0,0,239,303a4,4,0,0,1-3.22-1,1.72,1.72,0,0,1-.42-1.95,3.77,3.77,0,0,1,2-1.67,6.38,6.38,0,0,1-6.58-3.21,5,5,0,0,1,3.56-1.48,9.56,9.56,0,0,1-4.19-2.1,5.53,5.53,0,0,1-1.67-3.25,14,14,0,0,1,3.22-.4c-2.47-1.29-4.74-3.74-4.54-6.71a106.76,106.76,0,0,1,13.73,6A20.51,20.51,0,0,1,245,290.5a40.32,40.32,0,0,1,4.52-9.14,14.14,14.14,0,0,1,3.87-3.8A3.8,3.8,0,0,1,252.83,278.88Z" transform="translate(-197.72 -247.21)"/></g></svg>