<svg id="Instagram" xmlns="http://www.w3.org/2000/svg" viewBox="0 0 96.82 96.82"><defs><style>.cls-1{fill:none;stroke:#131313;stroke-miterlimit:10;stroke-width:2px;}.cls-2{fill:#131313;}.cls-3,.cls-4{fill:#f3f0ec;}.cls-3{opacity:0.55;}.cls-5{fill:#f0ebe3;}</style></defs><title>icon-instagram</title><circle class="cls-1" cx="246.46" cy="294.74" r="47.41" transform="translate(-262.68 -177.07) rotate(-14.16)"/><circle class="cls-2" cx="48.41" cy="48.41" r="40.68"/><path class="cls-3" d="M263.09,267.81c-.94.62.55,1.72,0,0Z" transform="translate(-198.05 -246.33)"/><path class="cls-3" d="M269.62,265.67c-2.55.22,0,1.33,0,0Z" transform="translate(-198.05 -246.33)"/><path class="cls-3" d="M252.31,305.9c0-.38-2.06-.12,0,0Z" transform="translate(-198.05 -246.33)"/><path class="cls-3" d="M238.52,315.15c.84.28.95-.84,1.51-.17C240.8,314.32,238.44,314.68,238.52,315.15Z" transform="translate(-198.05 -246.33)"/><path class="cls-4" d="M268.36,317.47c-2.49-.62-1.9,0,0,0Z" transform="translate(-198.05 -246.33)"/><path class="cls-3" d="M232.76,277.24c-2.16,0,.24,2.13,0,0Z" transform="translate(-198.05 -246.33)"/><path class="cls-3" d="M263.85,322.81c1.08-4-4.7,3.06,0,0Z" transform="translate(-198.05 -246.33)"/><path class="cls-3" d="M210,299.76c3.49,0,.2-2,0,0Z" transform="translate(-198.05 -246.33)"/><path class="cls-4" d="M223,286.86c.29,0,.17-2.86,0,0Z" transform="translate(-198.05 -246.33)"/><path class="cls-3" d="M269.62,326.19c1.6,1.33-.66-5.6,0,0Z" transform="translate(-198.05 -246.33)"/><path class="cls-3" d="M218.46,319.43c.06.31-.25.89.51.71C219.52,320.06,219.3,319.1,218.46,319.43Z" transform="translate(-198.05 -246.33)"/><path class="cls-3" d="M213.44,308.21c-.55.14-1.35.1-1.5.54C212.7,308.75,213.59,308.85,213.44,308.21Z" transform="translate(-198.05 -246.33)"/><path class="cls-3" d="M240.53,307c1.19-.51,0-1.56,0,0Z" transform="translate(-198.05 -246.33)"/><path class="cls-3" d="M235.77,288.81c-1.79.11.31,1.1,0,0Z" transform="translate(-198.05 -246.33)"/><path class="cls-3" d="M243.29,266.92c.65-.43,1.36-.82,1.5-1.6A2.16,2.16,0,0,0,243.29,266.92Z" transform="translate(-198.05 -246.33)"/><path class="cls-3" d="M236,313.52c.66.06.83-.26.76-.75C236.11,312.71,236,313,236,313.52Z" transform="translate(-198.05 -246.33)"/><path class="cls-3" d="M214.46,309.57c-.82.73,2.73.49,0,0Z" transform="translate(-198.05 -246.33)"/><path class="cls-3" d="M276.63,306.76c2.87,0,.57-1.9,0,0Z" transform="translate(-198.05 -246.33)"/><path class="cls-3" d="M218.21,305.63c-4.17-.31.46,2,0,0Z" transform="translate(-198.05 -246.33)"/><path class="cls-4" d="M270.37,292.47c0-1.71-2.07-.07,0,0Z" transform="translate(-198.05 -246.33)"/><path class="cls-3" d="M277.39,281c-.85-2.35-1.15.07,0,0Z" transform="translate(-198.05 -246.33)"/><path class="cls-3" d="M273.37,273.3c-.93.1.18,3.53,0,0Z" transform="translate(-198.05 -246.33)"/><path class="cls-4" d="M257.32,269.16c.12.37,3.22-.41,0,0Z" transform="translate(-198.05 -246.33)"/><path class="cls-4" d="M244.54,325.18c.36-.28.37-.73-.5-.57C243.68,324.89,243.67,325.34,244.54,325.18Z" transform="translate(-198.05 -246.33)"/><path class="cls-3" d="M228.26,296.6c0-.51-.51,0,0,0Z" transform="translate(-198.05 -246.33)"/><path class="cls-3" d="M265.35,292.09c-.75,1.67,2,.33,0,0Z" transform="translate(-198.05 -246.33)"/><path class="cls-3" d="M261.84,289.27c-2.95-.62,0,3.25,0,0Z" transform="translate(-198.05 -246.33)"/><path class="cls-4" d="M257.07,289.46c0,2.07,2.14-.33,0,0Z" transform="translate(-198.05 -246.33)"/><path class="cls-3" d="M279.39,277.81c-2,.11,3.78,0,0,0Z" transform="translate(-198.05 -246.33)"/><path class="cls-3" d="M212.44,275.93c-2.2,0,.4,1.72,0,0Z" transform="translate(-198.05 -246.33)"/><path class="cls-4" d="M242.63,284.72c0-.81-3.4-.45,0,0Z" transform="translate(-198.05 -246.33)"/><path class="cls-3" d="M237.46,296c0-.49-4.07,0,0,0Z" transform="translate(-198.05 -246.33)"/><path class="cls-4" d="M216.06,289.47c1.19-.09,0-2.1,0,0Z" transform="translate(-198.05 -246.33)"/><path class="cls-3" d="M218.55,271.46c.1-.75-.52-.83,0,0Z" transform="translate(-198.05 -246.33)"/><path class="cls-3" d="M218.91,282.22c1.12,0,.36-2.83,0,0Z" transform="translate(-198.05 -246.33)"/><path class="cls-3" d="M224.08,285.47c-.19,2.34,5.92-.74,0,0Z" transform="translate(-198.05 -246.33)"/><path class="cls-3" d="M228.54,320.5c0-.13-.21-1.47,0,0Z" transform="translate(-198.05 -246.33)"/><path class="cls-4" d="M274.74,283.47c.61-2.48,0-1.91,0,0Z" transform="translate(-198.05 -246.33)"/><path class="cls-3" d="M246.56,275.46c1.51,0-.2-2.4,0,0Z" transform="translate(-198.05 -246.33)"/><path class="cls-3" d="M251,311c-.61-2.38-1.81,0,0,0Z" transform="translate(-198.05 -246.33)"/><path class="cls-3" d="M254.05,269.2c3.41-.73-3.56-.6,0,0Z" transform="translate(-198.05 -246.33)"/><path class="cls-3" d="M258.68,313.75c-.47-.08-.58.34-.53,1C258.62,314.82,258.73,314.4,258.68,313.75Z" transform="translate(-198.05 -246.33)"/><path class="cls-3" d="M213.56,305.24c-1.52,0,0,1.51,0,0Z" transform="translate(-198.05 -246.33)"/><path class="cls-3" d="M237.82,307c-1.33,0,1.65,0,0,0Z" transform="translate(-198.05 -246.33)"/><path class="cls-3" d="M246.73,314.49c3.68.72,0-3.59,0,0Z" transform="translate(-198.05 -246.33)"/><path class="cls-3" d="M254.05,293.47c.74,5.29,2.11.42,0,0Z" transform="translate(-198.05 -246.33)"/><path class="cls-3" d="M254.58,324c-.2-.06-.05,0,0,0Z" transform="translate(-198.05 -246.33)"/><path class="cls-4" d="M261.18,273.46c.51,2.41-.54-2.75,0,0Z" transform="translate(-198.05 -246.33)"/><path class="cls-3" d="M266,284.72c-1.34,1.6,5.6-.66,0,0Z" transform="translate(-198.05 -246.33)"/><path class="cls-3" d="M236.31,320.5c0,.64.63.5,1.13.5C237.41,320.52,236.11,319.68,236.31,320.5Z" transform="translate(-198.05 -246.33)"/><path class="cls-3" d="M239.51,320.5c.62-3-1.07-.69,0,0Z" transform="translate(-198.05 -246.33)"/><path class="cls-3" d="M248.74,295.23c0,5.82,3-.56,0,0Z" transform="translate(-198.05 -246.33)"/><path class="cls-3" d="M260.42,311.24Z" transform="translate(-198.05 -246.33)"/><path class="cls-4" d="M265.5,321.25c.81.18-.13-1.7,0,0Z" transform="translate(-198.05 -246.33)"/><path class="cls-3" d="M280.76,307.74c-.68-.16-.74.52-.75,1.25A1.08,1.08,0,0,0,280.76,307.74Z" transform="translate(-198.05 -246.33)"/><path class="cls-3" d="M285.47,291.72c0,2.87,1.9.57,0,0Z" transform="translate(-198.05 -246.33)"/><path class="cls-3" d="M223.5,268.7c.13-.18.47-1.22-.19-1C223.18,267.89,222.84,268.93,223.5,268.7Z" transform="translate(-198.05 -246.33)"/><path class="cls-5" d="M246.5,276.31c6.28,0,7,0,9.5.14a13.26,13.26,0,0,1,4.37.81,7.31,7.31,0,0,1,2.7,1.76,7.15,7.15,0,0,1,1.76,2.7,13,13,0,0,1,.81,4.37c.12,2.48.14,3.23.14,9.51s0,7-.14,9.5a13,13,0,0,1-.81,4.37,7.15,7.15,0,0,1-1.76,2.7,7.31,7.31,0,0,1-2.7,1.76,13,13,0,0,1-4.37.81c-2.48.11-3.22.14-9.5.14s-7,0-9.51-.14a12.86,12.86,0,0,1-4.36-.81,7.79,7.79,0,0,1-4.47-4.46,13.26,13.26,0,0,1-.81-4.37c-.11-2.48-.13-3.22-.13-9.5s0-7,.13-9.51a13.26,13.26,0,0,1,.81-4.37,7.79,7.79,0,0,1,4.47-4.46,13.12,13.12,0,0,1,4.36-.81c2.48-.11,3.23-.14,9.51-.14m0-4.23c-6.39,0-7.19,0-9.7.14a17.25,17.25,0,0,0-5.71,1.09,12.05,12.05,0,0,0-6.88,6.88,17.19,17.19,0,0,0-1.09,5.71c-.12,2.51-.14,3.31-.14,9.7s0,7.18.14,9.69a17.14,17.14,0,0,0,1.09,5.71,11.51,11.51,0,0,0,2.72,4.17,11.36,11.36,0,0,0,4.16,2.71A17.25,17.25,0,0,0,236.8,319c2.51.12,3.31.15,9.7.15s7.19,0,9.69-.15a17.14,17.14,0,0,0,5.71-1.09,12,12,0,0,0,6.88-6.88,17.37,17.37,0,0,0,1.1-5.71c.11-2.51.14-3.31.14-9.69s0-7.19-.14-9.7a17.42,17.42,0,0,0-1.1-5.71,11.48,11.48,0,0,0-2.71-4.17,11.61,11.61,0,0,0-4.17-2.71,17.14,17.14,0,0,0-5.71-1.09c-2.5-.12-3.3-.14-9.69-.14" transform="translate(-198.05 -246.33)"/><path class="cls-5" d="M246.5,283.52a12.08,12.08,0,1,0,12.08,12.08,12.08,12.08,0,0,0-12.08-12.08m0,19.92a7.84,7.84,0,1,1,7.84-7.84,7.84,7.84,0,0,1-7.84,7.84" transform="translate(-198.05 -246.33)"/><path class="cls-5" d="M261.87,283a2.82,2.82,0,1,1-2.82-2.82,2.82,2.82,0,0,1,2.82,2.82" transform="translate(-198.05 -246.33)"/></svg>