<svg id="Youtube" xmlns="http://www.w3.org/2000/svg" viewBox="0 0 96.82 96.82"><defs><style>.cls-1{fill:#131313;}.cls-2,.cls-3{fill:#f3f0ec;}.cls-2{opacity:0.55;}.cls-4{fill:#f0ebe3;}.cls-5{fill:none;stroke:#131313;stroke-miterlimit:10;stroke-width:2px;}</style></defs><title>icon-youtube</title><circle class="cls-1" cx="48.41" cy="48.41" r="40.68"/><path class="cls-2" d="M265.07,266.65c-.94.61.55,1.72,0,0Z" transform="translate(-198.68 -246.27)"/><path class="cls-2" d="M271.59,264.51c-2.54.22,0,1.33,0,0Z" transform="translate(-198.68 -246.27)"/><path class="cls-2" d="M254.29,304.74c0-.38-2.06-.12,0,0Z" transform="translate(-198.68 -246.27)"/><path class="cls-3" d="M270.34,316.3c-2.5-.61-1.9,0,0,0Z" transform="translate(-198.68 -246.27)"/><path class="cls-2" d="M265.83,321.65c1.08-4-4.7,3.06,0,0Z" transform="translate(-198.68 -246.27)"/><path class="cls-2" d="M211.93,298.6c3.49,0,.2-2,0,0Z" transform="translate(-198.68 -246.27)"/><path class="cls-3" d="M225,285.7c.3,0,.17-2.86,0,0Z" transform="translate(-198.68 -246.27)"/><path class="cls-2" d="M271.59,325c1.61,1.33-.65-5.6,0,0Z" transform="translate(-198.68 -246.27)"/><path class="cls-2" d="M220.44,318.26c.06.32-.25.89.5.72C221.5,318.9,221.28,317.93,220.44,318.26Z" transform="translate(-198.68 -246.27)"/><path class="cls-2" d="M215.42,307.05c-.55.14-1.35.1-1.5.54C214.68,307.59,215.57,307.69,215.42,307.05Z" transform="translate(-198.68 -246.27)"/><path class="cls-2" d="M242.51,305.8c1.19-.5,0-1.55,0,0Z" transform="translate(-198.68 -246.27)"/><path class="cls-2" d="M237.75,287.65c-1.79.1.31,1.1,0,0Z" transform="translate(-198.68 -246.27)"/><path class="cls-2" d="M245.27,265.76c.65-.43,1.36-.82,1.5-1.6A2.16,2.16,0,0,0,245.27,265.76Z" transform="translate(-198.68 -246.27)"/><path class="cls-2" d="M238,312.36c.66.06.83-.26.75-.75C238.08,311.55,237.92,311.87,238,312.36Z" transform="translate(-198.68 -246.27)"/><path class="cls-2" d="M216.43,308.41c-.81.72,2.73.49,0,0Z" transform="translate(-198.68 -246.27)"/><path class="cls-2" d="M278.61,305.6c2.87,0,.57-1.9,0,0Z" transform="translate(-198.68 -246.27)"/><path class="cls-2" d="M220.19,304.47c-4.17-.31.46,2,0,0Z" transform="translate(-198.68 -246.27)"/><path class="cls-3" d="M272.35,291.31c0-1.71-2.08-.07,0,0Z" transform="translate(-198.68 -246.27)"/><path class="cls-2" d="M279.37,279.84c-.86-2.35-1.16.07,0,0Z" transform="translate(-198.68 -246.27)"/><path class="cls-2" d="M275.35,272.13c-.93.11.18,3.54,0,0Z" transform="translate(-198.68 -246.27)"/><path class="cls-3" d="M259.3,268c.12.37,3.22-.41,0,0Z" transform="translate(-198.68 -246.27)"/><path class="cls-3" d="M246.52,324c.36-.28.37-.73-.5-.57C245.66,323.73,245.65,324.18,246.52,324Z" transform="translate(-198.68 -246.27)"/><path class="cls-2" d="M230.23,295.44c0-.51-.5,0,0,0Z" transform="translate(-198.68 -246.27)"/><path class="cls-2" d="M267.33,290.93c-.75,1.67,2,.33,0,0Z" transform="translate(-198.68 -246.27)"/><path class="cls-2" d="M263.82,288.11c-2.95-.62,0,3.25,0,0Z" transform="translate(-198.68 -246.27)"/><path class="cls-2" d="M281.37,276.65c-2,.11,3.77,0,0,0Z" transform="translate(-198.68 -246.27)"/><path class="cls-2" d="M214.42,274.76c-2.2,0,.4,1.73,0,0Z" transform="translate(-198.68 -246.27)"/><path class="cls-3" d="M244.61,283.56c0-.81-3.4-.45,0,0Z" transform="translate(-198.68 -246.27)"/><path class="cls-2" d="M239.44,294.81c0-.48-4.07,0,0,0Z" transform="translate(-198.68 -246.27)"/><path class="cls-3" d="M218,288.31c1.2-.09,0-2.1,0,0Z" transform="translate(-198.68 -246.27)"/><path class="cls-2" d="M220.53,270.3c.1-.75-.52-.83,0,0Z" transform="translate(-198.68 -246.27)"/><path class="cls-2" d="M220.89,281.06c1.12,0,.36-2.83,0,0Z" transform="translate(-198.68 -246.27)"/><path class="cls-2" d="M226.06,284.31c-.19,2.34,5.92-.74,0,0Z" transform="translate(-198.68 -246.27)"/><path class="cls-2" d="M230.52,319.34c0-.13-.21-1.47,0,0Z" transform="translate(-198.68 -246.27)"/><path class="cls-3" d="M276.72,282.3c.61-2.48,0-1.9,0,0Z" transform="translate(-198.68 -246.27)"/><path class="cls-2" d="M253,309.83c-.61-2.38-1.8,0,0,0Z" transform="translate(-198.68 -246.27)"/><path class="cls-2" d="M256,268c3.41-.73-3.56-.6,0,0Z" transform="translate(-198.68 -246.27)"/><path class="cls-2" d="M215.54,304.07c-1.52,0,0,1.51,0,0Z" transform="translate(-198.68 -246.27)"/><path class="cls-2" d="M239.79,305.82c-1.32,0,1.66,0,0,0Z" transform="translate(-198.68 -246.27)"/><path class="cls-2" d="M256,292.31c.75,5.28,2.12.42,0,0Z" transform="translate(-198.68 -246.27)"/><path class="cls-2" d="M256.56,322.84c-.21-.07-.06,0,0,0Z" transform="translate(-198.68 -246.27)"/><path class="cls-3" d="M263.16,272.3c.51,2.41-.54-2.75,0,0Z" transform="translate(-198.68 -246.27)"/><path class="cls-2" d="M268,283.56c-1.34,1.6,5.6-.66,0,0Z" transform="translate(-198.68 -246.27)"/><path class="cls-2" d="M238.28,319.34c0,.64.64.5,1.14.5C239.38,319.36,238.09,318.52,238.28,319.34Z" transform="translate(-198.68 -246.27)"/><path class="cls-2" d="M241.49,319.34c.61-3-1.07-.7,0,0Z" transform="translate(-198.68 -246.27)"/><path class="cls-2" d="M250.72,294.07c.05,5.81,3-.56,0,0Z" transform="translate(-198.68 -246.27)"/><path class="cls-2" d="M262.4,310.08Z" transform="translate(-198.68 -246.27)"/><path class="cls-2" d="M282.74,306.58c-.69-.16-.74.52-.75,1.25A1.09,1.09,0,0,0,282.74,306.58Z" transform="translate(-198.68 -246.27)"/><path class="cls-2" d="M225.48,267.54c.13-.18.46-1.22-.19-1C225.16,266.73,224.82,267.77,225.48,267.54Z" transform="translate(-198.68 -246.27)"/><path class="cls-4" d="M255,288.85a4.28,4.28,0,0,0,3.14-1.82v1.61h2.71V274.06h-2.71v11.07c-.33.41-1.07,1.09-1.6,1.09s-.72-.4-.72-1V274.06h-2.71v12.19C253.09,287.69,253.53,288.85,255,288.85Z" transform="translate(-198.68 -246.27)"/><path class="cls-4" d="M242.92,285c0,2.57,1.34,3.91,4,3.91a3.72,3.72,0,0,0,3.9-3.91v-7.14a3.81,3.81,0,0,0-3.9-3.92,3.73,3.73,0,0,0-4,3.92Zm2.79-6.9c0-.8.37-1.39,1.13-1.39s1.19.57,1.19,1.39v6.78c0,.8-.41,1.38-1.14,1.38a1.23,1.23,0,0,1-1.18-1.38Z" transform="translate(-198.68 -246.27)"/><polygon class="cls-4" points="37.78 42.37 40.83 42.37 40.83 34.35 44.38 22.61 41.28 22.61 39.33 30.51 37.22 22.61 34.15 22.61 37.78 34.35 37.78 42.37"/><path class="cls-4" d="M264.48,292h-32a6.21,6.21,0,0,0-6.22,6.21v15.71a6.21,6.21,0,0,0,6.22,6.21h32a6.21,6.21,0,0,0,6.21-6.21V298.17A6.21,6.21,0,0,0,264.48,292Zm-27.7,23.48h-2.9V299.35h-3v-2.73h8.92v2.73h-3Zm10.34,0h-2.58v-1.53a5.81,5.81,0,0,1-1.48,1.29c-1.39.79-3.3.78-3.3-2v-11.6h2.58V312.2c0,.56.13.93.68.93s1.21-.64,1.52-1V301.56h2.58Zm9.94-2.88c0,1.72-.64,3.05-2.36,3.05a3,3,0,0,1-2.45-1.24v1.07h-2.61V296.62h2.61v6.06a3.09,3.09,0,0,1,2.29-1.3c1.89,0,2.52,1.6,2.52,3.48Zm9.54-3.74h-4.93v2.62c0,1,.08,1.94,1.12,1.94s1.16-.73,1.16-1.94v-1h2.65v1c0,2.68-1.14,4.3-3.86,4.3-2.47,0-3.73-1.8-3.73-4.3v-6.23a3.82,3.82,0,0,1,3.92-4.09c2.48,0,3.67,1.58,3.67,4.09Z" transform="translate(-198.68 -246.27)"/><path class="cls-4" d="M262.82,303.63c-1,0-1.15.68-1.15,1.63v1.41H264v-1.41C264,304.32,263.75,303.63,262.82,303.63Z" transform="translate(-198.68 -246.27)"/><path class="cls-4" d="M252.78,303.72a1.81,1.81,0,0,0-.53.42v8.66a2.34,2.34,0,0,0,.61.49,1.09,1.09,0,0,0,1.32-.15,1.56,1.56,0,0,0,.23-.95V305a1.76,1.76,0,0,0-.28-1.06A1.08,1.08,0,0,0,252.78,303.72Z" transform="translate(-198.68 -246.27)"/><circle class="cls-5" cx="48.41" cy="48.41" r="47.41"/></svg>