<svg id="Facebook_hover" data-name="Facebook hover" xmlns="http://www.w3.org/2000/svg" viewBox="0 0 96.82 96.82"><defs><style>.cls-1{fill:#b33034;}.cls-2,.cls-3{fill:#f3f0ec;}.cls-2{opacity:0.55;}.cls-4{fill:#f0ebe3;}.cls-5{fill:none;stroke:#131313;stroke-miterlimit:10;stroke-width:2px;}</style></defs><title>icon-facebook-hover</title><circle class="cls-1" cx="246.33" cy="295.29" r="40.68" transform="translate(-334.33 13.4) rotate(-45)"/><path class="cls-2" d="M262.27,267.84c-.95.61.54,1.71,0,0Z" transform="translate(-197.68 -247.27)"/><path class="cls-2" d="M268.79,265.7c-2.54.22,0,1.33,0,0Z" transform="translate(-197.68 -247.27)"/><path class="cls-2" d="M251.49,305.93c0-.38-2.06-.12,0,0Z" transform="translate(-197.68 -247.27)"/><path class="cls-2" d="M237.7,315.18c.83.28.94-.84,1.51-.17C240,314.35,237.61,314.7,237.7,315.18Z" transform="translate(-197.68 -247.27)"/><path class="cls-3" d="M286.84,301.48c-3.17-.84-.52,2.63,0,0Z" transform="translate(-197.68 -247.27)"/><path class="cls-3" d="M267.54,317.49c-2.5-.61-1.9,0,0,0Z" transform="translate(-197.68 -247.27)"/><path class="cls-2" d="M231.93,277.27c-2.15,0,.25,2.12,0,0Z" transform="translate(-197.68 -247.27)"/><path class="cls-2" d="M263,322.84c1.08-4-4.69,3.06,0,0Z" transform="translate(-197.68 -247.27)"/><path class="cls-2" d="M209.13,299.79c3.49,0,.2-2,0,0Z" transform="translate(-197.68 -247.27)"/><path class="cls-3" d="M222.15,286.88c.29,0,.17-2.85,0,0Z" transform="translate(-197.68 -247.27)"/><path class="cls-2" d="M268.79,326.22c1.61,1.33-.66-5.6,0,0Z" transform="translate(-197.68 -247.27)"/><path class="cls-2" d="M217.64,319.45c.06.32-.25.89.5.72C218.7,320.09,218.48,319.12,217.64,319.45Z" transform="translate(-197.68 -247.27)"/><path class="cls-2" d="M212.62,308.24c-.55.14-1.36.1-1.5.54C211.88,308.78,212.77,308.88,212.62,308.24Z" transform="translate(-197.68 -247.27)"/><path class="cls-2" d="M239.7,307c1.2-.5,0-1.55,0,0Z" transform="translate(-197.68 -247.27)"/><path class="cls-2" d="M234.94,288.84c-1.78.1.32,1.1,0,0Z" transform="translate(-197.68 -247.27)"/><path class="cls-2" d="M242.46,267c.65-.43,1.36-.82,1.51-1.6A2.19,2.19,0,0,0,242.46,267Z" transform="translate(-197.68 -247.27)"/><path class="cls-2" d="M235.19,313.55c.66.05.82-.26.75-.75C235.28,312.74,235.12,313.06,235.19,313.55Z" transform="translate(-197.68 -247.27)"/><path class="cls-2" d="M213.63,309.6c-.81.72,2.73.49,0,0Z" transform="translate(-197.68 -247.27)"/><path class="cls-2" d="M275.81,306.79c2.87,0,.56-1.9,0,0Z" transform="translate(-197.68 -247.27)"/><path class="cls-2" d="M217.39,305.66c-4.17-.31.45,2,0,0Z" transform="translate(-197.68 -247.27)"/><path class="cls-3" d="M269.54,292.5c0-1.71-2.07-.07,0,0Z" transform="translate(-197.68 -247.27)"/><path class="cls-2" d="M276.57,281c-.86-2.35-1.16.07,0,0Z" transform="translate(-197.68 -247.27)"/><path class="cls-2" d="M272.55,273.32c-.93.11.18,3.54,0,0Z" transform="translate(-197.68 -247.27)"/><path class="cls-3" d="M256.5,269.19c.12.37,3.22-.41,0,0Z" transform="translate(-197.68 -247.27)"/><path class="cls-3" d="M243.72,325.21c.35-.28.37-.73-.5-.57C242.86,324.92,242.85,325.37,243.72,325.21Z" transform="translate(-197.68 -247.27)"/><path class="cls-2" d="M227.43,296.63c0-.51-.51,0,0,0Z" transform="translate(-197.68 -247.27)"/><path class="cls-2" d="M264.53,292.12c-.76,1.67,2,.33,0,0Z" transform="translate(-197.68 -247.27)"/><path class="cls-2" d="M261,289.3c-3-.62,0,3.25,0,0Z" transform="translate(-197.68 -247.27)"/><path class="cls-3" d="M256.25,289.49c0,2.07,2.13-.33,0,0Z" transform="translate(-197.68 -247.27)"/><path class="cls-2" d="M278.57,277.84c-2,.11,3.77,0,0,0Z" transform="translate(-197.68 -247.27)"/><path class="cls-2" d="M211.62,276c-2.2,0,.4,1.73,0,0Z" transform="translate(-197.68 -247.27)"/><path class="cls-3" d="M241.81,284.75c0-.81-3.4-.45,0,0Z" transform="translate(-197.68 -247.27)"/><path class="cls-2" d="M236.63,296c0-.48-4.06,0,0,0Z" transform="translate(-197.68 -247.27)"/><path class="cls-3" d="M215.23,289.5c1.2-.09,0-2.1,0,0Z" transform="translate(-197.68 -247.27)"/><path class="cls-2" d="M217.73,271.49c.1-.75-.52-.83,0,0Z" transform="translate(-197.68 -247.27)"/><path class="cls-2" d="M218.08,282.24c1.12,0,.37-2.83,0,0Z" transform="translate(-197.68 -247.27)"/><path class="cls-2" d="M223.26,285.5c-.2,2.34,5.92-.74,0,0Z" transform="translate(-197.68 -247.27)"/><path class="cls-2" d="M227.72,320.53c0-.13-.21-1.47,0,0Z" transform="translate(-197.68 -247.27)"/><path class="cls-3" d="M273.91,283.49c.62-2.48,0-1.9,0,0Z" transform="translate(-197.68 -247.27)"/><path class="cls-2" d="M245.73,275.49c1.52,0-.19-2.4,0,0Z" transform="translate(-197.68 -247.27)"/><path class="cls-2" d="M250.19,311c-.61-2.38-1.8,0,0,0Z" transform="translate(-197.68 -247.27)"/><path class="cls-2" d="M257.86,313.78c-.47-.09-.59.34-.53,1C257.79,314.85,257.91,314.42,257.86,313.78Z" transform="translate(-197.68 -247.27)"/><path class="cls-2" d="M212.74,305.26c-1.52,0,0,1.51,0,0Z" transform="translate(-197.68 -247.27)"/><path class="cls-2" d="M237,307c-1.32,0,1.65,0,0,0Z" transform="translate(-197.68 -247.27)"/><path class="cls-2" d="M245.91,314.52c3.67.72,0-3.59,0,0Z" transform="translate(-197.68 -247.27)"/><path class="cls-2" d="M253.22,293.5c.75,5.28,2.12.42,0,0Z" transform="translate(-197.68 -247.27)"/><path class="cls-2" d="M253.76,324c-.21-.07-.06,0,0,0Z" transform="translate(-197.68 -247.27)"/><path class="cls-3" d="M260.36,273.48c.51,2.42-.54-2.74,0,0Z" transform="translate(-197.68 -247.27)"/><path class="cls-2" d="M265.17,284.75c-1.33,1.6,5.61-.66,0,0Z" transform="translate(-197.68 -247.27)"/><path class="cls-2" d="M235.48,320.53c0,.64.63.5,1.13.5C236.58,320.55,235.29,319.71,235.48,320.53Z" transform="translate(-197.68 -247.27)"/><path class="cls-2" d="M247.92,295.26c0,5.81,3-.56,0,0Z" transform="translate(-197.68 -247.27)"/><path class="cls-2" d="M259.59,311.27Z" transform="translate(-197.68 -247.27)"/><path class="cls-3" d="M264.68,321.28c.81.18-.13-1.7,0,0Z" transform="translate(-197.68 -247.27)"/><path class="cls-2" d="M279.94,307.77c-.69-.16-.74.52-.76,1.25A1.09,1.09,0,0,0,279.94,307.77Z" transform="translate(-197.68 -247.27)"/><path class="cls-2" d="M284.64,291.75c0,2.87,1.91.56,0,0Z" transform="translate(-197.68 -247.27)"/><path class="cls-2" d="M222.67,268.73c.14-.18.47-1.22-.18-1C222.35,267.92,222,269,222.67,268.73Z" transform="translate(-197.68 -247.27)"/><path class="cls-4" d="M239.79,321.22h10.44V295.07h7.29l.77-8.76h-8.06v-5c0-2.07.42-2.88,2.41-2.88h5.65v-9.09h-7.23c-7.77,0-11.27,3.42-11.27,10v7h-5.43v8.87h5.43Z" transform="translate(-197.68 -247.27)"/><circle class="cls-5" cx="48.41" cy="48.41" r="47.41"/></svg>